<svg xmlns="http://www.w3.org/2000/svg" width="760" height="760" viewBox="0 0 760 760" font-family="Inter,Segoe UI,sans-serif">
<rect width="760" height="760" fill="#faf7f2"/>
<text x="40" y="26" font-size="18" font-weight="700" fill="#0b1f3a">Darchula district — pre-2020 vs official 2020 map</text>
<path d="M609.2,368.1 L615.5,360.0 L617.3,351.7 L620.8,350.0 L623.2,343.1 L617.9,334.5 L611.7,331.7 L601.6,331.9 L604.1,327.2 L604.2,318.9 L599.4,313.2 L603.0,304.2 L603.2,294.6 L598.3,289.1 L588.2,286.1 L586.3,279.1 L578.1,270.0 L573.8,270.0 L571.3,258.9 L564.4,256.4 L565.4,252.4 L572.0,250.2 L573.4,246.0 L569.4,241.9 L560.7,238.1 L558.3,232.9 L560.7,228.1 L536.5,218.6 L529.2,217.3 L519.9,224.1 L508.7,224.3 L496.5,226.1 L481.6,225.9 L471.8,234.8 L467.7,235.8 L447.2,258.4 L448.3,263.2 L444.1,268.7 L434.8,273.0 L430.6,278.3 L437.4,284.7 L437.0,290.6 L443.0,306.8 L439.4,311.7 L434.6,312.4 L417.9,319.0 L414.2,324.1 L416.9,330.5 L409.6,334.4 L398.4,332.4 L382.7,343.5 L365.3,366.2 L350.8,372.1 L346.9,379.2 L348.6,388.7 L340.4,405.4 L333.3,410.8 L318.4,410.4 L312.8,418.3 L306.6,421.8 L303.5,426.3 L295.8,430.4 L285.8,442.8 L280.6,444.0 L262.9,445.1 L255.5,440.3 L248.4,437.8 L242.4,438.6 L231.2,443.1 L228.2,442.7 L221.0,447.5 L210.2,460.5 L204.6,470.5 L201.1,481.9 L203.3,492.1 L198.5,504.4 L190.9,512.7 L188.3,525.5 L181.2,530.8 L176.1,531.5 L163.5,546.1 L152.2,549.2 L144.4,558.2 L140.5,570.9 L128.9,569.4 L118.8,565.5 L109.9,565.5 L102.7,568.0 L95.1,562.6 L91.7,568.0 L80.7,570.6 L73.0,575.5 L73.4,580.1 L68.2,587.5 L65.2,594.6 L66.2,598.4 L57.3,599.1 L57.5,605.3 L46.9,607.0 L43.1,605.9 L40.0,614.2 L44.2,619.3 L41.4,622.9 L50.2,643.6 L53.0,655.0 L56.5,657.3 L55.0,662.4 L59.9,667.8 L61.6,673.9 L66.6,677.8 L73.7,677.6 L81.0,684.4 L79.1,688.9 L83.9,693.1 L82.9,702.8 L76.4,704.3 L72.7,714.4 L75.0,720.0 L82.1,718.5 L81.4,713.8 L88.5,714.4 L91.0,709.7 L96.9,708.1 L103.3,709.7 L107.1,704.1 L115.2,704.8 L120.6,707.9 L130.4,705.7 L142.6,705.0 L145.4,698.7 L150.4,694.1 L151.4,688.8 L161.0,682.0 L168.3,679.5 L175.9,673.9 L186.6,670.7 L200.7,661.8 L203.5,655.7 L213.7,654.7 L225.8,652.0 L229.9,656.1 L243.5,655.9 L250.4,652.9 L255.2,653.7 L265.0,660.3 L271.6,659.4 L283.0,655.6 L291.8,642.5 L299.7,640.8 L308.8,645.9 L315.4,643.7 L336.4,642.1 L346.0,639.4 L354.5,644.3 L366.3,644.2 L378.2,654.7 L390.2,658.0 L399.9,656.3 L403.5,653.0 L413.0,655.5 L417.0,650.8 L427.0,648.7 L432.1,640.6 L442.7,636.0 L452.0,634.7 L457.1,629.7 L465.2,626.2 L474.7,626.2 L484.3,622.2 L491.0,617.8 L495.7,617.8 L505.2,624.8 L516.3,628.2 L522.9,622.2 L528.0,613.9 L536.7,612.2 L540.5,613.8 L545.7,609.6 L563.7,611.4 L570.4,604.6 L582.5,600.4 L587.1,591.9 L588.2,579.6 L586.9,572.1 L591.1,570.5 L593.7,553.5 L592.8,545.0 L587.8,546.1 L569.4,535.4 L568.0,530.9 L569.8,520.2 L566.8,516.7 L567.7,508.1 L570.0,503.3 L561.8,492.5 L561.2,486.1 L558.3,482.5 L540.4,470.7 L538.6,467.1 L539.8,460.6 L549.0,451.7 L555.0,443.0 L551.9,435.8 L554.0,430.8 L549.8,425.7 L558.3,420.4 L568.0,404.0 L567.9,398.8 L579.9,391.7 L591.8,376.5 L599.7,374.2 L604.1,369.5 L609.2,368.1Z " fill="#c9c2b6" fill-opacity="0.55" stroke="#8a8172" stroke-width="1"/>
<path d="M610.6,368.1 L616.8,360.0 L618.6,351.7 L622.2,350.0 L624.6,343.1 L619.3,334.4 L613.1,331.7 L608.8,333.0 L603.1,331.8 L605.4,327.2 L605.6,318.9 L600.8,313.1 L604.3,304.2 L604.5,294.6 L599.6,289.0 L589.6,286.1 L587.6,279.1 L579.5,270.0 L575.1,269.9 L572.7,258.9 L565.8,256.4 L566.7,252.4 L573.4,250.2 L574.8,246.0 L570.8,241.8 L562.0,238.1 L559.7,232.9 L563.3,223.8 L562.2,220.2 L564.4,215.2 L557.1,214.0 L555.2,211.6 L545.7,209.3 L546.0,204.8 L540.6,201.4 L531.1,198.5 L527.8,200.6 L521.0,197.0 L514.0,197.6 L502.0,196.7 L492.5,199.4 L487.4,202.1 L482.1,198.2 L482.0,194.0 L485.2,190.2 L481.1,186.2 L471.9,182.2 L463.3,173.6 L454.7,172.2 L449.7,173.7 L440.8,172.5 L439.1,168.2 L431.7,162.0 L418.7,159.6 L409.6,162.4 L403.1,161.3 L397.5,154.6 L384.5,154.0 L384.8,147.2 L375.7,142.5 L370.6,136.0 L370.6,129.9 L366.9,129.5 L363.7,124.1 L344.4,110.6 L342.9,104.7 L339.9,103.8 L332.3,96.6 L327.3,94.0 L310.7,81.5 L305.0,84.4 L295.0,83.4 L293.2,78.9 L287.9,77.9 L287.3,73.3 L279.1,68.6 L271.8,61.7 L263.7,59.3 L258.2,55.6 L254.5,55.8 L247.9,51.2 L244.4,46.8 L236.8,49.5 L233.2,46.1 L231.0,40.0 L225.3,40.0 L223.8,44.0 L213.7,43.6 L208.4,46.8 L198.6,47.1 L198.7,50.5 L194.3,54.9 L186.4,58.7 L179.6,59.3 L176.1,65.0 L169.9,68.9 L170.2,73.7 L167.7,77.4 L178.5,85.3 L192.2,75.3 L199.2,68.0 L205.2,64.0 L212.6,61.5 L218.5,61.5 L228.0,58.6 L235.3,61.5 L243.5,71.4 L244.0,77.8 L248.8,83.2 L246.6,85.9 L248.0,90.3 L253.0,94.8 L252.7,98.3 L256.3,104.6 L262.9,107.8 L269.7,114.5 L274.1,134.0 L277.9,140.5 L290.8,148.0 L296.6,149.7 L305.1,148.6 L315.9,152.3 L319.0,155.9 L331.4,162.8 L331.0,166.5 L338.2,170.5 L345.8,169.2 L350.6,174.0 L352.2,179.8 L351.2,184.4 L352.6,191.7 L356.6,192.6 L369.2,206.8 L372.4,214.7 L379.4,223.8 L393.0,234.7 L396.7,234.6 L404.1,247.3 L408.6,249.9 L413.6,258.8 L425.0,268.3 L425.4,271.5 L438.7,284.7 L438.3,290.5 L444.3,306.8 L440.7,311.7 L436.0,312.4 L419.2,319.0 L415.5,324.1 L418.2,330.5 L411.0,334.4 L399.8,332.4 L384.0,343.5 L378.9,349.6 L366.6,366.2 L352.2,372.1 L348.2,379.2 L348.0,386.4 L350.0,388.7 L344.8,400.7 L341.7,405.4 L334.6,410.8 L319.7,410.4 L314.1,418.3 L308.0,421.8 L304.8,426.3 L297.0,430.4 L287.1,442.8 L282.0,444.0 L264.1,445.1 L256.7,440.3 L249.8,437.8 L243.7,438.6 L232.5,443.0 L229.4,442.7 L222.4,447.5 L211.5,460.5 L205.9,470.5 L202.3,481.9 L204.7,492.1 L199.8,504.4 L192.2,512.7 L195.9,515.5 L190.3,519.1 L189.6,525.5 L182.5,530.8 L177.4,531.5 L175.8,536.9 L172.8,536.9 L164.8,546.1 L153.4,549.2 L145.7,558.2 L141.8,570.9 L130.2,569.4 L120.1,565.5 L111.2,565.5 L104.0,568.0 L96.3,562.6 L93.0,568.0 L81.9,570.6 L79.6,573.6 L74.3,575.5 L74.8,580.1 L69.5,587.5 L66.6,594.6 L67.5,598.4 L58.6,599.1 L58.7,605.3 L48.1,607.0 L44.3,605.9 L41.3,614.2 L45.5,619.3 L42.7,622.9 L51.4,643.6 L53.1,644.3 L54.3,655.0 L57.9,657.3 L56.4,662.5 L61.2,667.8 L62.9,673.9 L67.9,677.9 L74.9,677.6 L82.3,684.4 L80.3,688.9 L85.1,693.1 L84.2,702.8 L77.8,704.3 L74.0,714.5 L76.3,720.0 L83.3,718.5 L82.7,713.8 L89.7,714.4 L92.2,709.7 L98.2,708.1 L104.5,709.7 L108.4,704.1 L116.5,704.8 L121.9,707.9 L131.6,705.8 L143.9,705.0 L146.6,698.7 L151.7,694.1 L152.7,688.8 L162.3,682.0 L169.6,679.5 L177.2,673.9 L187.8,670.7 L202.0,661.9 L204.8,655.7 L215.1,654.7 L227.1,652.0 L231.2,656.1 L241.2,654.9 L244.8,655.9 L251.7,652.9 L256.5,653.7 L266.4,660.3 L273.0,659.4 L277.2,656.8 L284.2,655.6 L293.1,642.5 L301.0,640.8 L310.1,645.9 L316.7,643.7 L328.3,642.6 L332.1,641.0 L337.7,642.1 L347.4,639.4 L355.8,644.3 L367.6,644.2 L377.8,654.5 L379.6,654.7 L391.5,658.0 L395.2,655.8 L401.3,656.3 L404.9,653.1 L414.3,655.5 L418.3,650.8 L428.4,648.7 L433.4,640.6 L438.2,639.8 L444.0,636.0 L453.4,634.7 L458.4,629.7 L466.5,626.2 L476.1,626.2 L485.6,622.2 L492.3,617.8 L497.1,617.8 L506.5,624.8 L517.7,628.2 L524.2,622.2 L529.4,613.9 L538.0,612.2 L541.8,613.8 L547.0,609.6 L558.6,611.4 L565.1,611.4 L571.7,604.6 L583.9,600.4 L588.4,591.9 L589.6,579.6 L588.2,572.1 L592.6,570.5 L595.0,553.5 L594.1,545.0 L589.2,546.1 L570.8,535.4 L569.3,530.9 L571.1,520.2 L568.1,516.7 L569.1,508.1 L571.3,503.3 L563.2,492.4 L562.6,486.1 L559.7,482.5 L551.3,477.7 L548.5,474.2 L541.7,470.7 L539.9,467.1 L541.2,460.6 L550.3,451.7 L556.3,442.9 L553.2,435.8 L555.3,430.7 L551.1,425.7 L559.7,420.4 L569.4,404.0 L569.2,398.8 L576.4,393.4 L581.4,391.7 L593.1,376.5 L601.0,374.2 L605.5,369.5 L610.6,368.1Z " fill="none" stroke="#c0122b" stroke-width="2.5"/>
<circle cx="162.0" cy="65.9" r="4" fill="#0b1f3a"/><text x="169.0" y="57.9" font-size="13" fill="#0b1f3a">Limpiyadhura</text>
<circle cx="538.0" cy="230.4" r="4" fill="#0b1f3a"/><text x="545.0" y="244.4" font-size="13" fill="#0b1f3a">Lipulekh</text>
<circle cx="342.2" cy="175.6" r="4" fill="#0b1f3a"/><text x="349.2" y="177.6" font-size="13" fill="#0b1f3a">Kalapani</text>
<g transform="translate(40,690)">
  <rect x="0" y="0" width="16" height="12" fill="#c9c2b6" fill-opacity="0.55" stroke="#8a8172"/>
  <text x="22" y="11" font-size="13" fill="#0b1f3a">Old file (pre-2020, 2017 vintage)</text>
  <line x1="0" y1="30" x2="16" y2="30" stroke="#c0122b" stroke-width="2.5"/>
  <text x="22" y="34" font-size="13" fill="#0b1f3a">New file (Survey Dept. official 2020) — crimson juts NW to reclaim the wedge</text>
</g>
</svg>